<?xml version="1.0" encoding="UTF-8" ?>
<!DOCTYPE svg PUBLIC "-//W3C//DTD SVG 1.1//EN" "http://www.w3.org/Graphics/SVG/1.1/DTD/svg11.dtd">
<svg width="256pt" height="256pt" viewBox="0 0 256 256" version="1.1" xmlns="http://www.w3.org/2000/svg">
<g id="#000000f9">
<path fill="#000000" opacity="0.98" d=" M 2.15 2.24 C 4.09 -0.46 7.58 -0.12 9.64 2.22 C 14.69 7.89 18.32 14.85 24.32 19.68 C 30.40 24.99 38.61 26.34 45.87 29.29 C 50.79 31.47 56.11 32.49 61.01 34.72 C 61.94 32.51 62.90 30.23 64.64 28.51 C 73.53 19.43 85.83 14.92 97.92 11.91 C 121.91 5.07 148.19 6.41 171.21 16.15 C 170.73 16.84 170.25 17.53 169.77 18.22 C 169.88 19.09 169.99 19.96 170.11 20.83 C 168.51 20.12 166.89 19.46 165.26 18.85 C 163.52 18.16 161.81 17.36 160.00 16.84 C 144.86 12.24 128.65 10.33 112.97 13.14 C 102.88 15.01 92.82 17.47 83.31 21.36 C 76.67 24.63 69.58 28.22 65.21 34.38 C 70.49 36.75 72.13 42.68 72.20 48.00 C 73.57 66.37 53.00 82.15 35.62 76.43 C 33.74 75.60 32.62 77.59 31.91 78.98 C 27.03 89.96 27.44 102.21 27.23 113.97 C 26.90 128.28 30.48 142.53 36.66 155.38 C 39.54 164.40 45.70 171.78 49.91 180.13 C 52.49 185.02 50.75 190.71 48.42 195.33 C 46.89 198.42 45.00 202.47 47.46 205.61 C 51.23 210.37 56.84 213.11 61.99 216.09 C 68.64 220.09 75.91 222.87 82.99 225.99 C 89.73 228.79 96.65 231.57 103.96 232.38 C 106.60 232.74 108.80 231.04 110.80 229.59 C 115.79 225.63 119.50 220.42 123.78 215.78 C 126.14 213.17 129.96 215.05 131.73 217.40 C 134.39 220.70 137.07 224.01 139.25 227.66 C 140.91 230.26 142.74 233.13 145.72 234.32 C 150.50 235.68 155.52 234.28 160.00 232.51 C 169.46 228.96 178.91 225.08 187.24 219.25 C 192.02 215.79 197.88 213.32 201.12 208.13 C 204.50 203.09 207.77 197.26 206.63 190.94 C 206.33 185.42 202.59 179.72 205.36 174.35 C 208.77 167.69 213.13 161.57 216.68 154.98 C 221.44 148.50 222.95 140.54 224.45 132.82 C 225.32 126.74 226.83 120.72 226.85 114.55 C 227.61 107.88 226.76 101.19 226.33 94.53 C 225.46 88.56 224.78 82.56 223.99 76.58 C 223.46 76.70 222.42 76.93 221.89 77.05 C 220.67 77.24 219.44 77.38 218.21 77.49 C 214.34 77.55 210.30 77.73 206.67 76.21 C 196.73 71.53 188.17 62.88 185.68 51.96 C 185.22 47.20 186.26 42.26 188.89 38.23 C 189.24 37.63 189.94 36.44 190.29 35.85 C 189.77 35.37 188.74 34.42 188.22 33.94 C 189.13 34.59 190.04 35.25 190.95 35.90 C 192.61 34.36 191.16 33.46 189.78 32.65 C 190.79 31.57 191.85 30.52 192.92 29.50 C 193.76 30.24 194.62 30.95 195.51 31.62 C 199.02 30.46 202.23 28.49 205.81 27.46 C 206.88 28.68 207.95 29.91 209.03 31.13 C 202.83 33.12 196.33 35.96 192.64 41.60 C 190.07 46.30 190.18 52.36 193.03 56.93 C 197.92 66.16 208.20 73.86 219.08 72.27 C 222.05 71.74 225.27 71.48 227.69 69.45 C 237.18 61.38 242.82 49.63 246.32 37.88 C 248.07 32.10 249.15 26.12 249.89 20.13 C 250.31 15.05 250.96 9.69 249.11 4.80 C 248.51 5.93 247.93 7.06 247.30 8.17 C 246.65 7.78 245.34 6.99 244.68 6.60 C 246.31 4.20 248.16 1.85 251.11 1.08 C 253.28 3.13 254.12 6.07 254.71 8.90 C 255.82 15.54 255.19 22.36 253.59 28.88 C 251.07 42.16 246.00 55.13 237.89 66.01 C 234.69 69.64 231.53 73.77 226.89 75.59 C 230.14 87.42 231.34 99.77 231.26 112.02 C 231.26 113.98 230.88 115.91 230.52 117.83 C 233.18 115.48 234.61 112.17 236.04 109.00 C 239.89 100.38 241.02 90.88 244.22 82.03 C 244.38 80.96 245.28 80.56 246.21 80.34 C 247.92 84.88 250.15 89.25 251.16 94.03 C 252.95 101.41 255.41 108.88 255.26 116.52 C 253.98 118.53 254.46 122.24 251.28 122.24 C 251.23 121.68 251.14 120.56 251.09 120.00 C 250.38 110.75 248.33 101.65 246.10 92.66 C 246.03 92.00 245.89 90.69 245.82 90.03 C 245.21 88.52 244.68 88.54 244.23 90.08 C 244.25 92.30 244.36 94.53 244.20 96.76 C 243.81 98.94 243.37 101.11 242.79 103.26 C 242.12 104.58 241.44 105.90 240.81 107.25 C 239.87 109.29 239.02 111.37 238.02 113.38 C 235.99 116.13 233.81 118.76 231.61 121.38 C 231.52 121.50 231.34 121.73 231.25 121.84 C 229.68 124.12 230.04 127.08 229.53 129.68 C 228.39 136.81 225.93 143.65 222.71 150.08 C 222.77 157.76 222.75 165.67 224.91 173.12 C 225.48 175.45 228.30 174.66 230.05 174.73 C 234.51 174.87 237.75 171.45 240.85 168.76 C 244.10 165.98 245.51 161.83 247.15 158.02 C 248.10 156.00 249.15 154.02 249.84 151.89 C 250.32 150.42 250.75 148.94 251.01 147.42 C 251.10 146.79 251.27 145.52 251.36 144.89 C 252.90 143.82 254.47 142.80 256.00 141.72 L 256.00 148.11 C 253.80 155.18 251.37 162.27 247.47 168.60 C 245.02 172.08 241.59 174.76 238.17 177.23 C 234.93 179.65 230.74 179.44 226.92 179.77 C 229.13 187.97 231.36 196.47 230.13 205.03 C 229.19 211.90 227.83 219.46 222.48 224.38 C 216.40 229.89 208.88 233.56 201.14 236.14 C 182.63 243.27 163.10 246.97 143.93 251.80 C 139.22 252.91 134.69 254.73 129.88 255.39 C 123.45 255.76 117.36 253.38 111.29 251.63 C 101.98 248.70 92.32 247.04 83.13 243.72 C 70.92 239.12 57.47 237.73 46.19 230.76 C 37.72 225.07 29.02 218.17 25.92 208.00 C 23.56 198.74 27.03 189.48 29.55 180.66 C 21.96 181.60 14.26 178.37 8.79 173.21 C 5.24 168.69 2.06 163.74 0.00 158.34 L 0.00 114.66 C 3.20 103.74 4.90 92.19 10.12 81.98 C 11.25 83.78 11.39 85.94 11.82 87.97 C 13.03 95.53 16.71 102.35 19.74 109.28 C 20.47 110.70 20.87 112.58 22.57 113.14 C 22.43 102.53 22.79 91.69 26.37 81.58 C 27.12 78.73 28.71 76.23 30.70 74.08 C 23.58 70.24 17.76 63.98 14.21 56.72 C 6.76 44.02 2.70 29.56 0.87 15.02 C 0.73 10.77 0.46 6.24 2.15 2.24 M 5.92 20.06 C 7.45 28.09 9.22 36.28 12.70 43.67 C 13.24 47.82 16.16 51.32 17.99 55.03 C 22.30 63.69 30.28 70.77 39.91 72.69 C 44.53 73.87 49.05 71.80 53.32 70.27 C 59.07 68.08 62.85 62.73 64.94 57.15 C 66.65 52.56 67.19 47.30 65.24 42.71 C 63.71 40.20 60.84 38.96 58.27 37.78 C 49.16 35.55 40.36 32.33 31.51 29.24 L 31.98 28.70 C 31.76 28.81 31.33 29.02 31.11 29.12 C 21.19 25.63 14.64 16.92 8.76 8.71 C 7.87 7.54 7.22 5.96 5.73 5.44 C 4.83 10.27 5.23 15.24 5.92 20.06 M 9.02 96.41 C 7.76 100.19 6.94 104.13 5.78 107.95 C 3.33 116.39 3.21 125.24 2.89 133.95 C 2.70 141.64 2.60 149.41 4.09 156.99 C 5.32 160.69 7.55 163.98 9.74 167.17 C 13.16 172.28 18.98 175.49 24.98 176.38 C 27.19 176.20 30.19 175.17 30.49 172.60 C 31.35 166.82 31.89 160.87 31.25 155.05 C 29.09 150.13 26.83 145.22 25.41 140.01 C 24.11 134.29 23.14 128.50 22.39 122.69 C 22.11 119.82 19.64 117.90 18.55 115.35 C 15.52 108.94 12.79 102.39 9.83 95.95 L 9.02 96.41 M 216.13 162.24 C 212.94 167.05 209.89 172.00 207.40 177.20 C 207.61 184.47 211.48 191.74 209.11 199.08 C 207.18 204.59 204.37 210.09 200.02 214.07 C 189.12 220.71 178.57 228.24 166.34 232.30 C 161.13 234.38 155.79 236.20 150.31 237.39 C 147.40 237.48 144.54 236.31 142.30 234.50 C 137.47 230.29 134.70 224.32 130.32 219.70 C 129.13 218.51 127.80 216.52 125.90 217.69 C 123.64 219.14 122.16 221.49 120.38 223.46 C 118.22 226.24 115.42 228.45 113.35 231.31 C 110.98 230.79 109.78 233.99 107.67 234.60 C 102.22 236.10 96.86 233.87 91.61 232.68 L 91.66 232.21 C 87.77 231.65 84.39 229.51 80.73 228.24 C 75.44 225.79 69.88 223.98 64.67 221.35 C 57.59 217.35 50.04 213.60 44.79 207.17 C 43.80 205.27 43.47 203.07 43.18 200.97 C 43.75 194.86 49.55 189.74 47.68 183.32 C 44.23 177.14 39.63 171.61 36.52 165.24 C 36.30 165.23 35.85 165.19 35.63 165.17 C 35.23 173.31 32.54 181.07 30.94 189.01 C 28.18 196.20 28.42 204.54 31.38 211.63 C 34.66 215.39 37.71 219.36 41.47 222.68 C 42.17 222.67 42.87 222.67 43.58 222.67 C 45.77 225.84 49.34 227.50 52.42 229.64 C 54.18 230.93 56.59 230.43 58.41 231.60 C 61.84 233.97 66.17 233.96 70.07 235.03 C 72.95 235.54 75.46 237.18 78.30 237.82 C 82.69 238.72 86.61 241.03 90.96 242.06 C 98.25 244.24 105.57 246.29 112.91 248.28 C 115.25 249.10 117.54 250.62 120.14 249.93 C 125.75 252.16 132.18 251.03 137.90 249.66 C 142.86 247.33 148.48 247.34 153.60 245.51 C 159.51 243.39 165.86 242.95 171.77 240.84 C 179.33 239.82 186.30 236.56 193.61 234.57 C 200.67 231.98 208.19 229.95 214.10 225.10 C 215.44 224.59 216.50 223.58 217.64 222.76 L 217.66 222.62 C 220.14 220.78 222.47 218.59 223.75 215.73 C 227.97 205.66 227.45 194.18 224.24 183.90 C 223.21 179.41 220.61 175.50 220.46 170.80 C 219.70 166.55 219.76 162.23 219.62 157.94 C 217.99 158.96 216.99 160.57 216.13 162.24 Z" />
</g>
<g id="#efe3d6f9">
<path fill="#efe3d6" opacity="0.98" d=" M 247.30 8.17 C 247.93 7.06 248.51 5.93 249.11 4.80 C 250.96 9.69 250.31 15.05 249.89 20.13 C 249.57 19.61 248.95 18.59 248.63 18.07 C 246.54 19.23 245.52 21.46 244.46 23.49 C 244.28 21.68 244.06 19.87 243.86 18.06 C 245.78 15.33 248.26 11.94 247.08 8.44 L 247.30 8.17 Z" />
</g>
<g id="#635b4dfa">
<path fill="#635b4d" opacity="0.98" d=" M 5.92 20.06 C 5.23 15.24 4.83 10.27 5.73 5.44 C 7.22 5.96 7.87 7.54 8.76 8.71 L 8.05 9.39 C 8.11 14.37 8.44 19.59 10.98 24.02 C 12.59 26.69 14.62 29.08 16.37 31.66 C 16.47 32.28 16.56 32.90 16.65 33.51 C 16.61 34.04 16.54 35.10 16.50 35.62 C 17.84 37.06 19.10 38.59 20.11 40.28 C 15.40 39.83 15.39 34.09 11.98 31.91 C 10.45 35.86 14.27 39.64 12.70 43.67 C 9.22 36.28 7.45 28.09 5.92 20.06 Z" />
</g>
<g id="#0b0704f4">
<path fill="#0b0704" opacity="0.96" d=" M 225.41 21.41 C 233.26 18.66 239.50 12.92 244.68 6.60 C 245.34 6.99 246.65 7.78 247.30 8.17 L 247.08 8.44 C 243.91 11.49 241.34 15.13 237.88 17.88 C 229.51 24.60 219.26 28.33 209.03 31.13 C 207.95 29.91 206.88 28.68 205.81 27.46 C 212.32 25.36 219.18 24.39 225.41 21.41 Z" />
</g>
<g id="#c5b99ffa">
<path fill="#c5b99f" opacity="0.98" d=" M 8.05 9.39 L 8.76 8.71 C 8.95 13.49 13.61 15.94 15.83 19.74 L 14.65 20.30 C 15.56 22.21 16.71 23.97 17.97 25.66 C 16.98 25.15 15.99 24.66 15.00 24.16 C 15.70 26.61 16.39 29.09 16.37 31.66 C 14.62 29.08 12.59 26.69 10.98 24.02 C 8.44 19.59 8.11 14.37 8.05 9.39 Z" />
<path fill="#c5b99f" opacity="0.98" d=" M 126.00 108.07 C 127.02 107.43 128.15 107.17 129.38 107.30 C 129.35 108.04 129.27 109.51 129.24 110.25 C 128.20 110.41 127.17 110.53 126.13 110.63 C 126.10 109.99 126.03 108.71 126.00 108.07 Z" />
</g>
<g id="#f8f3f0fa">
<path fill="#f8f3f0" opacity="0.98" d=" M 8.76 8.71 C 14.64 16.92 21.19 25.63 31.11 29.12 L 30.19 30.40 C 28.79 30.54 27.39 30.60 25.99 30.59 C 23.13 26.49 18.69 23.85 15.83 19.74 C 13.61 15.94 8.95 13.49 8.76 8.71 Z" />
<path fill="#f8f3f0" opacity="0.98" d=" M 244.46 23.49 C 245.52 21.46 246.54 19.23 248.63 18.07 C 248.95 18.59 249.57 19.61 249.89 20.13 C 249.15 26.12 248.07 32.10 246.32 37.88 C 241.79 43.71 238.74 50.46 234.31 56.37 C 231.25 60.83 227.13 64.39 223.61 68.45 C 222.79 68.46 221.98 68.49 221.17 68.52 C 221.99 63.05 224.80 58.22 227.55 53.52 C 233.19 43.52 240.55 34.40 244.46 23.49 Z" />
</g>
<g id="#7b7361fb">
<path fill="#7b7361" opacity="1.00" d=" M 237.88 17.88 C 241.34 15.13 243.91 11.49 247.08 8.44 C 248.26 11.94 245.78 15.33 243.86 18.06 C 236.50 29.32 224.33 35.75 212.61 41.52 C 210.21 42.89 207.24 43.68 205.60 46.04 C 205.49 49.47 205.98 52.91 206.60 56.28 C 207.93 62.84 216.07 65.32 216.78 72.17 C 217.35 72.19 218.50 72.24 219.08 72.27 C 208.20 73.86 197.92 66.16 193.03 56.93 C 190.18 52.36 190.07 46.30 192.64 41.60 C 196.33 35.96 202.83 33.12 209.03 31.13 C 219.26 28.33 229.51 24.60 237.88 17.88 Z" />
</g>
<g id="#53140cfd">
<path fill="#53140c" opacity="1.00" d=" M 112.97 13.14 C 128.65 10.33 144.86 12.24 160.00 16.84 C 157.35 16.23 154.96 17.79 152.37 17.76 C 150.37 17.52 148.36 17.47 146.36 17.72 C 139.90 17.94 133.10 18.11 127.24 21.18 C 118.81 25.45 110.40 29.97 103.11 36.05 C 86.60 49.73 71.26 65.83 62.93 85.89 C 55.73 101.88 55.67 119.91 57.27 137.05 C 57.48 140.31 60.11 142.59 62.01 144.99 C 67.62 151.24 71.89 158.78 73.78 166.99 C 74.83 172.24 74.71 177.66 74.25 182.98 C 73.65 189.35 70.75 195.42 71.31 201.91 C 71.62 205.15 74.45 207.36 77.09 208.84 C 87.06 214.11 96.46 220.38 105.94 226.46 C 107.51 227.57 109.13 228.62 110.80 229.59 C 108.80 231.04 106.60 232.74 103.96 232.38 C 96.65 231.57 89.73 228.79 82.99 225.99 C 75.91 222.87 68.64 220.09 61.99 216.09 C 56.84 213.11 51.23 210.37 47.46 205.61 C 45.00 202.47 46.89 198.42 48.42 195.33 C 50.75 190.71 52.49 185.02 49.91 180.13 C 45.70 171.78 39.54 164.40 36.66 155.38 C 30.48 142.53 26.90 128.28 27.23 113.97 C 27.44 102.21 27.03 89.96 31.91 78.98 C 32.62 77.59 33.74 75.60 35.62 76.43 C 53.00 82.15 73.57 66.37 72.20 48.00 C 72.13 42.68 70.49 36.75 65.21 34.38 C 69.58 28.22 76.67 24.63 83.31 21.36 C 92.82 17.47 102.88 15.01 112.97 13.14 Z" />
</g>
<g id="#0c0704f2">
<path fill="#0c0704" opacity="0.95" d=" M 171.21 16.15 C 179.24 19.17 186.38 24.01 192.92 29.50 C 191.85 30.52 190.79 31.57 189.78 32.65 C 183.60 28.09 177.43 23.44 170.11 20.83 C 169.99 19.96 169.88 19.09 169.77 18.22 C 170.25 17.53 170.73 16.84 171.21 16.15 Z" />
</g>
<g id="#d63623fd">
<path fill="#d63623" opacity="1.00" d=" M 152.37 17.76 C 154.96 17.79 157.35 16.23 160.00 16.84 C 161.81 17.36 163.52 18.16 165.26 18.85 C 165.06 18.92 164.66 19.06 164.46 19.12 C 166.10 20.35 167.79 21.50 169.55 22.55 C 166.54 22.81 163.55 21.94 160.55 22.45 C 160.15 25.11 159.21 27.68 157.96 30.06 C 155.85 32.50 153.26 34.53 151.52 37.30 C 151.78 37.67 152.31 38.41 152.57 38.78 C 148.30 41.44 146.82 46.47 143.47 49.99 C 143.54 52.45 144.05 55.25 142.30 57.30 C 140.58 59.32 139.87 61.82 139.68 64.42 C 138.30 65.09 136.93 65.78 135.53 66.41 C 132.31 66.75 129.07 67.00 125.88 67.61 C 124.93 66.60 124.13 65.47 123.49 64.23 C 124.52 63.25 125.53 62.25 126.55 61.25 C 126.20 59.65 125.86 58.04 125.51 56.44 C 126.45 55.86 127.39 55.28 128.34 54.70 C 126.62 52.63 128.47 50.39 130.40 49.37 C 130.52 44.49 134.99 41.54 136.50 37.21 C 138.45 32.78 141.42 28.95 143.82 24.81 C 146.96 22.72 148.54 18.80 152.37 17.76 Z" />
</g>
<g id="#ab2b1cfd">
<path fill="#ab2b1c" opacity="1.00" d=" M 127.24 21.18 C 133.10 18.11 139.90 17.94 146.36 17.72 C 144.20 18.52 141.93 18.96 139.64 19.20 C 139.73 22.09 138.04 24.61 135.13 25.16 C 133.99 29.33 129.90 31.77 128.88 35.98 C 126.87 39.26 126.20 43.48 122.93 45.84 C 121.86 46.75 120.68 47.71 120.55 49.22 C 120.38 51.14 118.60 52.14 117.53 53.55 C 116.76 55.07 116.60 56.80 116.25 58.45 C 115.80 58.67 114.89 59.09 114.43 59.31 C 114.50 61.07 114.59 62.92 113.73 64.53 C 114.02 65.12 114.32 65.70 114.62 66.29 C 114.13 67.75 113.65 69.24 113.69 70.80 C 105.23 73.86 97.03 77.70 89.34 82.36 C 87.18 83.41 87.88 86.27 89.79 87.17 C 96.21 82.85 103.31 79.57 110.65 77.17 C 111.57 77.54 112.50 77.91 113.42 78.28 C 111.81 81.03 111.60 84.28 110.38 87.19 C 110.80 87.21 111.64 87.24 112.06 87.26 C 111.32 87.80 110.59 88.36 109.86 88.92 C 111.24 88.89 112.62 88.84 114.00 88.77 C 113.94 89.38 113.83 90.60 113.77 91.21 C 108.75 91.83 103.46 92.70 99.43 96.02 C 100.00 96.77 100.58 97.51 101.18 98.24 C 101.38 98.46 101.78 98.90 101.98 99.13 C 102.98 99.30 103.98 99.47 104.99 99.62 C 103.56 99.53 102.14 99.44 100.72 99.36 C 100.76 100.14 100.82 101.71 100.85 102.49 C 100.06 101.57 99.32 100.63 98.61 99.65 C 97.61 100.67 96.57 99.71 95.59 99.22 C 94.41 104.93 94.57 110.73 94.52 116.52 C 93.40 116.81 92.28 117.12 91.16 117.42 C 92.11 118.33 93.06 119.23 94.02 120.13 C 93.17 122.88 92.12 125.67 92.41 128.61 C 92.97 128.80 94.10 129.20 94.67 129.40 C 93.81 130.51 92.25 131.41 92.44 133.01 C 92.51 134.69 93.91 135.90 94.55 137.37 C 94.69 139.72 93.33 141.96 93.71 144.32 C 94.10 147.30 94.56 150.32 95.96 153.03 C 97.72 156.11 95.49 160.29 98.15 162.97 C 100.38 164.94 99.17 168.10 99.78 170.65 C 101.15 172.74 103.02 174.49 104.10 176.78 C 102.06 177.66 100.89 179.29 101.52 181.53 C 102.23 181.26 102.94 180.98 103.66 180.71 C 104.83 181.99 106.07 183.21 107.38 184.37 C 106.64 185.60 105.95 186.86 105.27 188.13 C 106.36 189.14 107.44 190.16 108.52 191.19 C 107.79 193.32 107.39 195.55 107.43 197.81 C 108.89 197.95 110.36 198.10 111.82 198.26 C 110.74 198.83 109.65 199.41 108.57 199.98 C 110.15 202.12 109.01 204.45 107.88 206.49 C 108.84 206.45 109.80 206.42 110.77 206.40 C 110.82 206.89 110.91 207.87 110.96 208.37 C 110.43 208.46 109.36 208.65 108.83 208.74 C 109.73 209.80 110.67 210.82 111.69 211.77 C 111.09 211.90 109.89 212.16 109.29 212.29 C 110.05 212.96 110.81 213.63 111.58 214.30 C 111.05 216.06 110.50 217.82 109.93 219.56 C 109.28 219.20 108.64 218.83 108.00 218.47 C 107.34 221.14 106.65 223.80 105.94 226.46 C 96.46 220.38 87.06 214.11 77.09 208.84 C 74.45 207.36 71.62 205.15 71.31 201.91 C 70.75 195.42 73.65 189.35 74.25 182.98 C 74.71 177.66 74.83 172.24 73.78 166.99 C 71.89 158.78 67.62 151.24 62.01 144.99 C 60.11 142.59 57.48 140.31 57.27 137.05 C 55.67 119.91 55.73 101.88 62.93 85.89 C 71.26 65.83 86.60 49.73 103.11 36.05 C 110.40 29.97 118.81 25.45 127.24 21.18 Z" />
</g>
<g id="#c4311ffd">
<path fill="#c4311f" opacity="1.00" d=" M 146.36 17.72 C 148.36 17.47 150.37 17.52 152.37 17.76 C 148.54 18.80 146.96 22.72 143.82 24.81 C 141.42 28.95 138.45 32.78 136.50 37.21 C 134.99 41.54 130.52 44.49 130.40 49.37 C 128.47 50.39 126.62 52.63 128.34 54.70 C 127.39 55.28 126.45 55.86 125.51 56.44 C 125.86 58.04 126.20 59.65 126.55 61.25 C 125.53 62.25 124.52 63.25 123.49 64.23 C 124.13 65.47 124.93 66.60 125.88 67.61 C 121.74 68.36 117.69 69.52 113.69 70.80 C 113.65 69.24 114.13 67.75 114.62 66.29 C 114.32 65.70 114.02 65.12 113.73 64.53 C 114.59 62.92 114.50 61.07 114.43 59.31 C 114.89 59.09 115.80 58.67 116.25 58.45 C 116.60 56.80 116.76 55.07 117.53 53.55 C 118.60 52.14 120.38 51.14 120.55 49.22 C 120.68 47.71 121.86 46.75 122.93 45.84 C 126.20 43.48 126.87 39.26 128.88 35.98 C 129.90 31.77 133.99 29.33 135.13 25.16 C 138.04 24.61 139.73 22.09 139.64 19.20 C 141.93 18.96 144.20 18.52 146.36 17.72 Z" />
</g>
<g id="#fce8c5fc">
<path fill="#fce8c5" opacity="1.00" d=" M 212.61 41.52 C 224.33 35.75 236.50 29.32 243.86 18.06 C 244.06 19.87 244.28 21.68 244.46 23.49 C 240.55 34.40 233.19 43.52 227.55 53.52 C 224.80 58.22 221.99 63.05 221.17 68.52 C 221.98 68.49 222.79 68.46 223.61 68.45 C 224.97 68.75 226.34 69.08 227.69 69.45 C 225.27 71.48 222.05 71.74 219.08 72.27 C 218.50 72.24 217.35 72.19 216.78 72.17 C 216.07 65.32 207.93 62.84 206.60 56.28 C 205.98 52.91 205.49 49.47 205.60 46.04 C 207.24 43.68 210.21 42.89 212.61 41.52 Z" />
</g>
<g id="#e7cac5f0">
<path fill="#e7cac5" opacity="0.94" d=" M 164.46 19.12 C 164.66 19.06 165.06 18.92 165.26 18.85 C 166.89 19.46 168.51 20.12 170.11 20.83 C 177.43 23.44 183.60 28.09 189.78 32.65 C 191.16 33.46 192.61 34.36 190.95 35.90 C 190.04 35.25 189.13 34.59 188.22 33.94 C 188.74 34.42 189.77 35.37 190.29 35.85 C 189.94 36.44 189.24 37.63 188.89 38.23 C 188.47 38.41 187.62 38.78 187.19 38.96 C 184.04 34.00 178.87 30.98 174.89 26.80 C 173.28 25.18 171.55 23.67 169.55 22.55 C 167.79 21.50 166.10 20.35 164.46 19.12 Z" />
</g>
<g id="#b2a68ffa">
<path fill="#b2a68f" opacity="0.98" d=" M 14.65 20.30 L 15.83 19.74 C 18.69 23.85 23.13 26.49 25.99 30.59 C 27.39 30.60 28.79 30.54 30.19 30.40 L 31.11 29.12 C 31.33 29.02 31.76 28.81 31.98 28.70 L 31.51 29.24 C 31.24 29.66 30.69 30.49 30.41 30.91 C 34.37 33.59 38.87 35.70 43.71 35.95 C 44.15 36.47 44.58 36.99 45.02 37.52 C 42.20 37.00 39.72 35.46 36.94 34.78 C 33.49 33.98 31.07 30.72 27.40 30.67 C 27.45 31.23 27.55 32.35 27.60 32.91 C 26.25 32.26 24.86 31.70 23.48 31.12 C 23.47 31.95 23.47 32.78 23.47 33.61 C 21.75 34.15 20.16 35.00 18.88 36.29 C 18.11 35.39 17.37 34.46 16.65 33.51 C 16.56 32.90 16.47 32.28 16.37 31.66 C 16.39 29.09 15.70 26.61 15.00 24.16 C 15.99 24.66 16.98 25.15 17.97 25.66 C 16.71 23.97 15.56 22.21 14.65 20.30 Z" />
</g>
<g id="#f03d27fe">
<path fill="#f03d27" opacity="1.00" d=" M 160.55 22.45 C 163.55 21.94 166.54 22.81 169.55 22.55 C 171.55 23.67 173.28 25.18 174.89 26.80 C 173.36 28.23 171.38 28.82 169.38 29.17 C 169.75 30.50 170.11 31.83 170.48 33.16 C 169.87 34.15 169.25 35.15 168.64 36.14 C 168.71 37.30 168.79 38.46 168.87 39.62 C 168.24 39.83 167.00 40.23 166.38 40.43 C 166.83 41.19 167.28 41.94 167.73 42.69 C 166.70 42.91 165.68 43.13 164.67 43.35 C 164.21 44.36 163.66 45.45 164.21 46.55 C 164.89 48.27 162.76 49.22 161.87 50.34 C 162.71 52.85 160.61 55.01 159.71 57.17 C 159.96 57.77 160.21 58.37 160.47 58.97 C 159.69 60.00 158.93 61.04 158.18 62.08 C 157.70 61.64 156.74 60.76 156.26 60.32 C 155.52 62.06 155.31 63.95 155.54 65.83 C 155.47 68.31 158.02 69.83 157.91 72.39 C 157.15 73.79 156.50 75.25 155.86 76.71 C 166.60 75.37 176.82 80.35 184.98 86.89 C 187.01 88.59 188.65 90.70 190.28 92.77 C 189.01 93.35 187.74 93.92 186.47 94.49 C 186.17 96.13 185.84 97.77 185.45 99.40 C 185.08 99.43 184.35 99.48 183.98 99.51 C 183.41 95.81 179.13 94.82 175.98 94.56 C 168.78 93.90 162.17 97.17 155.69 99.77 C 155.40 100.64 155.12 101.50 154.86 102.37 C 154.37 105.26 155.48 108.02 155.74 110.86 C 155.68 111.60 155.72 112.32 155.87 113.04 C 162.37 114.34 168.25 110.33 174.60 109.76 C 175.40 111.73 176.48 113.59 177.06 115.65 C 176.60 115.63 175.67 115.59 175.20 115.57 C 171.82 115.21 168.43 115.52 165.04 115.71 C 162.03 115.88 158.99 115.12 156.01 115.79 C 161.38 119.26 168.17 117.03 173.93 115.81 C 174.62 119.08 174.44 122.52 175.53 125.71 C 176.29 125.64 177.06 125.58 177.83 125.52 C 177.60 126.49 177.37 127.47 177.14 128.46 C 177.60 128.50 178.51 128.60 178.97 128.65 C 178.46 129.29 177.96 129.95 177.46 130.60 C 178.84 132.19 180.49 133.79 180.44 136.06 C 180.38 138.37 183.33 137.91 184.85 138.40 C 183.21 138.78 181.53 139.21 180.24 140.37 C 183.72 142.04 183.72 146.22 186.34 148.65 C 187.46 149.84 187.53 151.54 187.93 153.04 C 188.79 153.34 189.66 153.64 190.54 153.94 C 190.06 154.72 189.57 155.50 189.09 156.29 C 190.00 157.21 190.93 158.12 191.83 159.06 C 191.45 160.18 191.08 161.29 190.72 162.41 C 189.79 162.41 188.86 162.41 187.93 162.42 C 189.37 163.37 190.85 164.26 192.32 165.17 C 193.24 168.99 190.12 171.88 186.87 173.12 C 176.13 177.46 164.35 177.48 152.95 177.47 C 148.89 177.50 144.84 177.03 140.83 176.45 C 142.29 175.38 143.68 174.19 144.98 172.92 C 143.70 171.45 142.48 169.92 141.35 168.33 C 142.82 167.61 145.24 167.74 145.71 165.85 C 145.06 164.94 144.30 164.13 143.57 163.29 C 143.23 163.67 142.54 164.43 142.19 164.81 C 139.92 160.84 143.34 156.69 143.80 152.67 C 144.21 152.26 145.05 151.44 145.47 151.03 C 145.65 150.77 146.01 150.24 146.19 149.98 C 146.28 147.60 146.01 145.17 146.60 142.83 C 147.01 146.20 146.96 149.60 147.20 152.98 C 152.02 150.70 149.45 144.99 148.67 141.08 C 147.29 141.31 145.91 141.53 144.54 141.78 C 144.08 140.99 143.62 140.20 143.14 139.42 C 142.54 139.63 141.36 140.05 140.77 140.26 C 140.47 139.53 139.87 138.08 139.58 137.35 C 138.21 136.98 136.85 136.62 135.49 136.27 C 134.39 134.14 136.32 132.82 138.00 131.94 C 135.76 131.08 134.39 129.06 133.16 127.12 C 134.08 125.12 134.95 123.00 134.45 120.76 C 135.22 120.49 135.99 120.23 136.76 119.97 C 136.51 119.32 136.02 118.04 135.78 117.39 C 136.20 117.18 137.05 116.76 137.47 116.55 C 137.87 116.36 138.67 115.96 139.07 115.77 C 138.96 115.14 138.74 113.88 138.63 113.25 C 138.47 112.68 138.16 111.53 138.00 110.95 C 139.19 109.02 140.42 107.10 141.38 105.04 C 142.20 103.39 142.52 101.56 142.43 99.73 L 141.79 99.32 C 140.19 98.51 138.53 97.83 136.88 97.11 C 137.69 96.35 138.49 95.59 139.30 94.82 C 138.15 93.90 136.93 93.07 135.67 92.32 C 135.30 91.35 134.94 90.38 134.59 89.41 C 133.98 89.17 132.76 88.68 132.15 88.44 C 132.62 88.23 133.56 87.80 134.03 87.59 C 135.41 87.93 136.81 88.26 138.20 88.57 L 138.46 87.35 C 138.94 83.57 137.75 79.11 141.49 76.62 C 141.38 75.82 141.27 75.03 141.15 74.24 C 143.30 74.85 145.46 75.42 147.66 75.82 C 146.78 72.93 146.75 69.42 144.79 67.04 C 141.86 65.97 138.59 66.53 135.53 66.41 C 136.93 65.78 138.30 65.09 139.68 64.42 C 139.87 61.82 140.58 59.32 142.30 57.30 C 144.05 55.25 143.54 52.45 143.47 49.99 C 146.82 46.47 148.30 41.44 152.57 38.78 C 152.31 38.41 151.78 37.67 151.52 37.30 C 153.26 34.53 155.85 32.50 157.96 30.06 C 159.21 27.68 160.15 25.11 160.55 22.45 M 160.54 90.03 C 164.03 90.09 167.56 89.62 171.02 90.25 C 174.04 91.02 176.79 92.89 180.01 92.77 C 177.21 89.80 172.86 89.24 169.09 88.27 C 166.30 87.99 162.24 87.11 160.54 90.03 M 154.37 139.51 C 152.22 141.84 152.55 145.87 152.33 148.93 C 152.57 152.10 156.59 152.50 158.29 150.23 C 161.25 148.64 159.42 144.95 158.31 142.70 C 157.52 141.29 156.36 138.75 154.37 139.51 Z" />
</g>
<g id="#fc4229fd">
<path fill="#fc4229" opacity="1.00" d=" M 174.89 26.80 C 178.87 30.98 184.04 34.00 187.19 38.96 C 187.62 38.78 188.47 38.41 188.89 38.23 C 186.26 42.26 185.22 47.20 185.68 51.96 C 188.17 62.88 196.73 71.53 206.67 76.21 C 210.30 77.73 214.34 77.55 218.21 77.49 C 218.17 86.03 220.21 94.40 220.34 102.93 C 220.95 116.09 217.74 128.99 215.53 141.88 C 214.62 146.55 214.55 151.32 214.91 156.06 C 214.45 155.57 213.99 155.08 213.53 154.60 C 211.42 157.27 208.66 159.65 208.58 163.34 C 206.70 164.17 205.23 165.54 204.47 167.47 C 202.78 167.45 200.72 167.63 199.53 166.18 C 198.70 164.92 198.13 163.53 197.48 162.18 C 196.39 163.79 195.31 165.41 194.28 167.07 C 193.64 166.43 192.98 165.80 192.32 165.17 C 190.85 164.26 189.37 163.37 187.93 162.42 C 188.86 162.41 189.79 162.41 190.72 162.41 C 191.08 161.29 191.45 160.18 191.83 159.06 C 190.93 158.12 190.00 157.21 189.09 156.29 C 189.57 155.50 190.06 154.72 190.54 153.94 C 189.66 153.64 188.79 153.34 187.93 153.04 C 187.53 151.54 187.46 149.84 186.34 148.65 C 183.72 146.22 183.72 142.04 180.24 140.37 C 181.53 139.21 183.21 138.78 184.85 138.40 C 183.33 137.91 180.38 138.37 180.44 136.06 C 180.49 133.79 178.84 132.19 177.46 130.60 C 177.96 129.95 178.46 129.29 178.97 128.65 C 178.51 128.60 177.60 128.50 177.14 128.46 C 177.37 127.47 177.60 126.49 177.83 125.52 C 177.06 125.58 176.29 125.64 175.53 125.71 C 174.44 122.52 174.62 119.08 173.93 115.81 L 175.20 115.57 C 175.67 115.59 176.60 115.63 177.06 115.65 C 176.48 113.59 175.40 111.73 174.60 109.76 C 176.43 109.64 178.26 109.60 180.09 109.58 C 180.55 109.84 181.47 110.36 181.93 110.62 C 181.06 109.88 180.19 109.14 179.33 108.40 C 180.82 105.64 182.88 102.88 182.59 99.57 L 183.98 99.51 C 184.35 99.48 185.08 99.43 185.45 99.40 C 185.84 97.77 186.17 96.13 186.47 94.49 C 187.74 93.92 189.01 93.35 190.28 92.77 L 190.90 92.48 C 191.05 89.44 188.18 87.57 186.58 85.34 C 180.09 76.94 170.25 71.36 159.90 69.33 C 159.22 70.34 158.53 71.35 157.91 72.39 C 158.02 69.83 155.47 68.31 155.54 65.83 C 155.31 63.95 155.52 62.06 156.26 60.32 C 156.74 60.76 157.70 61.64 158.18 62.08 C 158.93 61.04 159.69 60.00 160.47 58.97 C 160.21 58.37 159.96 57.77 159.71 57.17 C 160.61 55.01 162.71 52.85 161.87 50.34 C 162.76 49.22 164.89 48.27 164.21 46.55 C 163.66 45.45 164.21 44.36 164.67 43.35 C 165.68 43.13 166.70 42.91 167.73 42.69 C 167.28 41.94 166.83 41.19 166.38 40.43 C 167.00 40.23 168.24 39.83 168.87 39.62 C 168.79 38.46 168.71 37.30 168.64 36.14 C 169.25 35.15 169.87 34.15 170.48 33.16 C 170.11 31.83 169.75 30.50 169.38 29.17 C 171.38 28.82 173.36 28.23 174.89 26.80 Z" />
</g>
<g id="#e5e3dff9">
<path fill="#e5e3df" opacity="0.98" d=" M 30.41 30.91 C 30.69 30.49 31.24 29.66 31.51 29.24 C 40.36 32.33 49.16 35.55 58.27 37.78 C 60.84 38.96 63.71 40.20 65.24 42.71 C 67.19 47.30 66.65 52.56 64.94 57.15 C 63.26 56.81 61.89 55.81 60.99 54.35 C 60.15 52.15 60.35 49.17 58.13 47.79 C 52.84 44.19 46.44 42.88 40.59 40.47 C 35.81 38.81 31.56 36.01 27.60 32.91 C 27.55 32.35 27.45 31.23 27.40 30.67 C 31.07 30.72 33.49 33.98 36.94 34.78 C 39.72 35.46 42.20 37.00 45.02 37.52 C 44.58 36.99 44.15 36.47 43.71 35.95 C 38.87 35.70 34.37 33.59 30.41 30.91 Z" />
<path fill="#e5e3df" opacity="0.98" d=" M 173.64 96.71 C 175.83 96.84 178.10 96.65 180.21 97.42 C 178.52 97.41 176.84 97.36 175.16 97.27 C 174.69 98.03 174.23 98.80 173.78 99.57 C 173.74 98.86 173.67 97.43 173.64 96.71 Z" />
</g>
<g id="#a29781fa">
<path fill="#a29781" opacity="0.98" d=" M 23.48 31.12 C 24.86 31.70 26.25 32.26 27.60 32.91 C 31.56 36.01 35.81 38.81 40.59 40.47 C 46.44 42.88 52.84 44.19 58.13 47.79 C 60.35 49.17 60.15 52.15 60.99 54.35 C 55.30 55.56 49.52 53.98 43.92 53.02 C 34.39 49.55 26.61 42.64 18.88 36.29 C 20.16 35.00 21.75 34.15 23.47 33.61 C 23.47 32.78 23.47 31.95 23.48 31.12 Z" />
</g>
<g id="#534c41fb">
<path fill="#534c41" opacity="1.00" d=" M 11.98 31.91 C 15.39 34.09 15.40 39.83 20.11 40.28 C 19.10 38.59 17.84 37.06 16.50 35.62 C 16.54 35.10 16.61 34.04 16.65 33.51 C 17.37 34.46 18.11 35.39 18.88 36.29 C 26.61 42.64 34.39 49.55 43.92 53.02 C 49.52 53.98 55.30 55.56 60.99 54.35 C 61.89 55.81 63.26 56.81 64.94 57.15 C 62.85 62.73 59.07 68.08 53.32 70.27 C 49.05 71.80 44.53 73.87 39.91 72.69 C 30.28 70.77 22.30 63.69 17.99 55.03 C 16.16 51.32 13.24 47.82 12.70 43.67 C 14.27 39.64 10.45 35.86 11.98 31.91 Z" />
</g>
<g id="#eed3acf9">
<path fill="#eed3ac" opacity="0.98" d=" M 234.31 56.37 C 238.74 50.46 241.79 43.71 246.32 37.88 C 242.82 49.63 237.18 61.38 227.69 69.45 C 226.34 69.08 224.97 68.75 223.61 68.45 C 227.13 64.39 231.25 60.83 234.31 56.37 Z" />
</g>
<g id="#401a20fd">
<path fill="#401a20" opacity="1.00" d=" M 125.88 67.61 C 129.07 67.00 132.31 66.75 135.53 66.41 C 138.59 66.53 141.86 65.97 144.79 67.04 C 146.75 69.42 146.78 72.93 147.66 75.82 C 145.46 75.42 143.30 74.85 141.15 74.24 C 136.39 73.24 131.48 73.35 126.67 73.90 C 121.21 74.30 115.92 75.76 110.65 77.17 C 103.31 79.57 96.21 82.85 89.79 87.17 C 87.88 86.27 87.18 83.41 89.34 82.36 C 97.03 77.70 105.23 73.86 113.69 70.80 C 117.69 69.52 121.74 68.36 125.88 67.61 M 116.11 72.07 C 107.52 74.49 98.96 77.87 91.68 83.08 C 96.77 81.76 100.97 78.32 106.06 76.97 C 118.33 72.37 132.19 69.46 145.01 73.53 C 145.56 71.69 144.75 69.84 143.74 68.33 C 134.41 67.85 124.94 68.99 116.11 72.07 Z" />
</g>
<g id="#5b4440fe">
<path fill="#5b4440" opacity="1.00" d=" M 116.11 72.07 C 124.94 68.99 134.41 67.85 143.74 68.33 C 144.75 69.84 145.56 71.69 145.01 73.53 C 132.19 69.46 118.33 72.37 106.06 76.97 C 100.97 78.32 96.77 81.76 91.68 83.08 C 98.96 77.87 107.52 74.49 116.11 72.07 Z" />
</g>
<g id="#120e0efb">
<path fill="#120e0e" opacity="1.00" d=" M 157.91 72.39 C 158.53 71.35 159.22 70.34 159.90 69.33 C 170.25 71.36 180.09 76.94 186.58 85.34 C 188.18 87.57 191.05 89.44 190.90 92.48 L 190.28 92.77 C 188.65 90.70 187.01 88.59 184.98 86.89 C 176.82 80.35 166.60 75.37 155.86 76.71 C 156.50 75.25 157.15 73.79 157.91 72.39 M 157.65 75.23 C 161.14 75.38 164.68 75.38 168.11 76.14 C 172.96 77.55 177.03 80.71 181.67 82.59 L 181.20 81.25 C 175.65 75.84 168.12 73.08 160.95 70.50 C 159.70 71.97 158.31 73.38 157.65 75.23 Z" />
<path fill="#120e0e" opacity="1.00" d=" M 176.91 230.74 C 189.19 228.26 201.49 225.04 214.10 225.10 C 208.19 229.95 200.67 231.98 193.61 234.57 C 186.30 236.56 179.33 239.82 171.77 240.84 C 165.86 242.95 159.51 243.39 153.60 245.51 C 148.48 247.34 142.86 247.33 137.90 249.66 C 132.18 251.03 125.75 252.16 120.14 249.93 C 118.99 249.22 117.88 248.46 116.76 247.70 C 116.75 245.92 115.97 242.54 113.55 243.72 C 113.79 244.88 114.40 245.91 114.95 246.94 C 112.07 246.51 109.27 245.69 106.53 244.70 C 106.93 243.27 107.76 241.82 107.21 240.33 C 106.78 240.59 105.92 241.12 105.49 241.39 C 102.93 235.68 95.60 237.62 91.46 234.00 C 91.49 233.67 91.57 233.01 91.61 232.68 C 96.86 233.87 102.22 236.10 107.67 234.60 C 109.78 233.99 110.98 230.79 113.35 231.31 C 119.85 234.12 127.08 233.85 133.97 234.81 C 136.72 234.83 139.82 236.24 142.30 234.50 C 144.54 236.31 147.40 237.48 150.31 237.39 C 155.79 236.20 161.13 234.38 166.34 232.30 C 169.77 234.15 173.41 231.19 176.91 230.74 Z" />
</g>
<g id="#5e443dfd">
<path fill="#5e443d" opacity="1.00" d=" M 157.65 75.23 C 158.31 73.38 159.70 71.97 160.95 70.50 C 168.12 73.08 175.65 75.84 181.20 81.25 L 181.67 82.59 C 177.03 80.71 172.96 77.55 168.11 76.14 C 164.68 75.38 161.14 75.38 157.65 75.23 Z" />
</g>
<g id="#c9311efe">
<path fill="#c9311e" opacity="1.00" d=" M 110.65 77.17 C 115.92 75.76 121.21 74.30 126.67 73.90 C 128.03 74.37 129.37 74.89 130.71 75.40 C 128.22 77.18 124.22 80.67 126.52 83.93 C 124.78 84.01 123.04 84.12 121.31 84.24 C 121.45 84.60 121.75 85.32 121.90 85.69 C 118.59 86.04 115.32 86.66 112.06 87.26 C 111.64 87.24 110.80 87.21 110.38 87.19 C 111.60 84.28 111.81 81.03 113.42 78.28 C 112.50 77.91 111.57 77.54 110.65 77.17 Z" />
</g>
<g id="#dd3623fe">
<path fill="#dd3623" opacity="1.00" d=" M 126.67 73.90 C 131.48 73.35 136.39 73.24 141.15 74.24 C 141.27 75.03 141.38 75.82 141.49 76.62 C 137.75 79.11 138.94 83.57 138.46 87.35 C 133.19 85.33 127.46 85.13 121.90 85.69 C 121.75 85.32 121.45 84.60 121.31 84.24 C 123.04 84.12 124.78 84.01 126.52 83.93 C 124.22 80.67 128.22 77.18 130.71 75.40 C 129.37 74.89 128.03 74.37 126.67 73.90 Z" />
</g>
<g id="#faece4fa">
<path fill="#faece4" opacity="0.98" d=" M 218.21 77.49 C 219.44 77.38 220.67 77.24 221.89 77.05 C 220.88 77.43 219.86 77.82 218.86 78.23 C 219.25 80.20 219.64 82.28 221.23 83.68 C 220.89 84.81 220.38 85.99 220.83 87.18 C 221.81 91.17 222.70 95.20 222.86 99.33 C 222.78 105.23 222.80 111.14 222.02 117.00 C 221.53 122.48 219.82 127.73 218.92 133.14 C 217.64 138.73 217.64 144.56 216.17 150.10 C 215.74 147.38 215.53 144.63 215.53 141.88 C 217.74 128.99 220.95 116.09 220.34 102.93 C 220.21 94.40 218.17 86.03 218.21 77.49 Z" />
<path fill="#faece4" opacity="0.98" d=" M 224.80 95.83 C 225.18 95.50 225.95 94.85 226.33 94.53 C 226.76 101.19 227.61 107.88 226.85 114.55 C 225.17 110.47 225.94 106.03 225.31 101.77 C 225.15 99.79 224.93 97.81 224.80 95.83 Z" />
</g>
<g id="#e8d1ccee">
<path fill="#e8d1cc" opacity="0.93" d=" M 221.89 77.05 C 222.42 76.93 223.46 76.70 223.99 76.58 C 224.78 82.56 225.46 88.56 226.33 94.53 C 225.95 94.85 225.18 95.50 224.80 95.83 C 224.33 96.74 223.91 97.66 223.51 98.60 L 222.86 99.33 C 222.70 95.20 221.81 91.17 220.83 87.18 C 220.38 85.99 220.89 84.81 221.23 83.68 C 219.64 82.28 219.25 80.20 218.86 78.23 C 219.86 77.82 220.88 77.43 221.89 77.05 Z" />
</g>
<g id="#7a150afe">
<path fill="#7a150a" opacity="1.00" d=" M 112.06 87.26 C 115.32 86.66 118.59 86.04 121.90 85.69 C 127.46 85.13 133.19 85.33 138.46 87.35 L 138.20 88.57 C 136.81 88.26 135.41 87.93 134.03 87.59 C 127.38 86.11 120.57 87.62 114.00 88.77 C 112.62 88.84 111.24 88.89 109.86 88.92 C 110.59 88.36 111.32 87.80 112.06 87.26 Z" />
</g>
<g id="#d5331efe">
<path fill="#d5331e" opacity="1.00" d=" M 114.00 88.77 C 120.57 87.62 127.38 86.11 134.03 87.59 C 133.56 87.80 132.62 88.23 132.15 88.44 C 132.76 88.68 133.98 89.17 134.59 89.41 C 134.94 90.38 135.30 91.35 135.67 92.32 C 136.93 93.07 138.15 93.90 139.30 94.82 C 138.49 95.59 137.69 96.35 136.88 97.11 C 129.67 93.69 121.90 90.82 113.77 91.21 C 113.83 90.60 113.94 89.38 114.00 88.77 Z" />
</g>
<g id="#a71d14fe">
<path fill="#a71d14" opacity="1.00" d=" M 160.54 90.03 C 162.24 87.11 166.30 87.99 169.09 88.27 C 172.86 89.24 177.21 89.80 180.01 92.77 C 176.79 92.89 174.04 91.02 171.02 90.25 C 167.56 89.62 164.03 90.09 160.54 90.03 Z" />
</g>
<g id="#423027c0">
<path fill="#423027" opacity="0.75" d=" M 244.23 90.08 C 244.68 88.54 245.21 88.52 245.82 90.03 C 245.43 90.04 244.63 90.07 244.23 90.08 Z" />
</g>
<g id="#0e0c0c0f">
<path fill="#0e0c0c" opacity="0.06" d=" M 244.23 90.08 C 244.63 90.07 245.43 90.04 245.82 90.03 C 245.89 90.69 246.03 92.00 246.10 92.66 C 247.21 102.20 250.41 111.60 249.60 121.31 L 248.91 122.11 C 248.81 120.67 248.73 119.22 248.68 117.78 C 248.46 119.38 247.54 120.21 245.84 119.92 C 245.79 119.28 245.68 117.99 245.62 117.34 C 245.14 110.48 243.23 103.67 244.20 96.76 C 244.36 94.53 244.25 92.30 244.23 90.08 Z" />
</g>
<g id="#180000fd">
<path fill="#180000" opacity="1.00" d=" M 99.43 96.02 C 103.46 92.70 108.75 91.83 113.77 91.21 C 121.90 90.82 129.67 93.69 136.88 97.11 C 138.53 97.83 140.19 98.51 141.79 99.32 C 141.82 99.98 141.89 101.29 141.92 101.94 C 140.21 100.48 138.19 99.49 136.09 98.73 C 136.01 100.93 135.99 103.12 135.89 105.32 C 135.33 108.44 132.75 110.44 130.83 112.72 C 133.17 112.47 136.56 113.43 138.00 110.95 C 138.16 111.53 138.47 112.68 138.63 113.25 C 133.19 114.77 127.67 113.77 122.27 112.65 C 114.58 110.95 106.43 110.24 98.89 113.00 C 100.02 111.33 102.10 111.00 103.87 110.35 C 103.69 109.24 103.52 108.12 103.29 107.02 C 103.78 107.89 104.29 108.75 104.81 109.61 C 108.63 109.69 112.47 109.38 116.27 109.91 C 114.28 106.22 114.92 101.74 117.03 98.27 C 119.02 100.96 115.85 104.56 117.80 107.37 C 118.97 110.85 123.12 110.82 126.13 110.63 C 127.17 110.53 128.20 110.41 129.24 110.25 C 133.98 108.85 134.74 102.76 133.56 98.67 C 129.02 98.07 123.92 94.13 119.71 97.89 C 119.10 97.91 117.87 97.95 117.26 97.96 C 117.73 97.32 118.67 96.04 119.14 95.40 C 118.21 95.40 116.35 95.39 115.42 95.38 L 115.35 96.33 C 111.77 96.17 108.19 96.29 104.65 96.86 C 104.71 96.64 104.83 96.20 104.88 95.98 C 106.32 95.39 107.82 95.18 109.39 95.33 C 112.27 93.29 116.20 94.73 119.52 94.21 C 119.47 94.53 119.36 95.18 119.30 95.50 C 119.76 94.93 120.24 94.36 120.73 93.81 C 117.48 93.84 114.23 93.79 110.98 93.79 C 110.62 94.01 109.88 94.46 109.51 94.69 C 107.09 94.63 104.52 95.20 102.89 97.13 C 103.19 97.14 103.79 97.15 104.10 97.16 C 103.79 97.47 103.17 98.11 102.86 98.42 L 101.18 98.24 C 100.58 97.51 100.00 96.77 99.43 96.02 Z" />
</g>
<g id="#f6f6f6fd">
<path fill="#f6f6f6" opacity="1.00" d=" M 109.51 94.69 C 109.88 94.46 110.62 94.01 110.98 93.79 C 114.23 93.79 117.48 93.84 120.73 93.81 C 120.24 94.36 119.76 94.93 119.30 95.50 C 119.36 95.18 119.47 94.53 119.52 94.21 C 116.20 94.73 112.27 93.29 109.39 95.33 C 107.82 95.18 106.32 95.39 104.88 95.98 C 104.83 96.20 104.71 96.64 104.65 96.86 L 104.10 97.16 C 103.79 97.15 103.19 97.14 102.89 97.13 C 104.52 95.20 107.09 94.63 109.51 94.69 Z" />
<path fill="#f6f6f6" opacity="1.00" d=" M 157.69 102.37 C 158.57 101.55 159.44 100.73 160.31 99.89 C 158.81 103.86 158.83 108.91 162.44 111.77 C 160.24 111.63 157.52 112.68 155.74 110.86 C 155.48 108.02 154.37 105.26 154.86 102.37 C 155.56 102.37 156.98 102.37 157.69 102.37 Z" />
</g>
<g id="#6c5f5f78">
<path fill="#6c5f5f" opacity="0.47" d=" M 246.10 92.66 C 248.33 101.65 250.38 110.75 251.09 120.00 C 251.63 126.10 249.46 131.92 249.49 137.96 C 248.51 134.02 247.95 130.00 247.58 125.97 C 247.30 124.53 247.89 123.10 248.91 122.11 L 249.60 121.31 C 250.41 111.60 247.21 102.20 246.10 92.66 Z" />
</g>
<g id="#020100fe">
<path fill="#020100" opacity="1.00" d=" M 155.69 99.77 C 162.17 97.17 168.78 93.90 175.98 94.56 C 179.13 94.82 183.41 95.81 183.98 99.51 L 182.59 99.57 C 181.44 99.46 180.14 99.48 179.33 98.48 C 177.41 98.19 175.52 98.25 174.25 99.89 C 174.91 102.98 174.64 106.19 172.73 108.80 C 174.92 108.65 177.13 108.52 179.33 108.40 C 180.19 109.14 181.06 109.88 181.93 110.62 C 181.47 110.36 180.55 109.84 180.09 109.58 C 178.26 109.60 176.43 109.64 174.60 109.76 C 168.25 110.33 162.37 114.34 155.87 113.04 C 155.72 112.32 155.68 111.60 155.74 110.86 C 157.52 112.68 160.24 111.63 162.44 111.77 C 158.83 108.91 158.81 103.86 160.31 99.89 C 159.44 100.73 158.57 101.55 157.69 102.37 C 156.98 102.37 155.56 102.37 154.86 102.37 C 155.12 101.50 155.40 100.64 155.69 99.77 M 173.64 96.71 C 173.67 97.43 173.74 98.86 173.78 99.57 C 174.23 98.80 174.69 98.03 175.16 97.27 C 176.84 97.36 178.52 97.41 180.21 97.42 C 178.10 96.65 175.83 96.84 173.64 96.71 M 162.46 100.48 C 160.81 102.90 160.37 107.04 163.07 108.90 C 164.73 110.59 167.11 109.58 169.15 109.49 C 169.45 109.24 170.06 108.73 170.36 108.48 C 171.17 105.36 172.90 102.09 171.98 98.82 C 170.55 98.03 169.22 98.93 168.20 99.86 C 168.01 101.95 167.91 105.17 171.01 104.49 L 170.81 106.40 C 169.08 105.98 168.01 107.03 167.14 108.31 C 166.77 108.07 166.02 107.59 165.65 107.35 C 162.66 104.64 166.75 101.83 166.40 98.72 C 165.07 99.25 163.67 99.68 162.46 100.48 Z" />
</g>
<g id="#58130bfb">
<path fill="#58130b" opacity="1.00" d=" M 9.02 96.41 L 9.83 95.95 C 12.79 102.39 15.52 108.94 18.55 115.35 C 19.64 117.90 22.11 119.82 22.39 122.69 C 23.14 128.50 24.11 134.29 25.41 140.01 C 26.83 145.22 29.09 150.13 31.25 155.05 C 31.89 160.87 31.35 166.82 30.49 172.60 C 30.19 175.17 27.19 176.20 24.98 176.38 C 18.98 175.49 13.16 172.28 9.74 167.17 C 7.55 163.98 5.32 160.69 4.09 156.99 C 2.60 149.41 2.70 141.64 2.89 133.95 C 3.21 125.24 3.33 116.39 5.78 107.95 C 6.94 104.13 7.76 100.19 9.02 96.41 M 8.11 122.15 C 9.68 128.52 15.30 132.84 17.51 138.97 C 15.24 142.19 14.06 146.11 14.27 150.05 C 14.45 150.98 14.17 153.80 15.91 152.92 C 17.94 150.20 17.07 146.22 19.02 143.42 C 19.29 143.82 19.81 144.61 20.08 145.01 C 22.25 152.70 23.14 160.70 24.61 168.55 C 25.58 169.00 26.24 168.73 26.56 167.74 C 27.65 161.47 26.54 155.11 25.39 148.93 C 23.47 139.25 17.93 130.78 11.51 123.46 C 10.72 122.52 9.40 121.39 8.11 122.15 Z" />
<path fill="#58130b" opacity="1.00" d=" M 126.73 117.73 C 130.34 117.55 133.83 116.23 137.47 116.55 C 137.05 116.76 136.20 117.18 135.78 117.39 C 129.70 119.43 123.17 120.04 116.82 119.20 C 114.21 118.79 111.52 118.64 109.05 117.65 C 109.45 117.60 110.24 117.50 110.64 117.45 C 116.00 117.56 121.37 118.05 126.73 117.73 Z" />
</g>
<g id="#f3edeff5">
<path fill="#f3edef" opacity="0.96" d=" M 115.42 95.38 C 116.35 95.39 118.21 95.40 119.14 95.40 C 118.67 96.04 117.73 97.32 117.26 97.96 C 117.20 98.04 117.09 98.19 117.03 98.27 C 114.92 101.74 114.28 106.22 116.27 109.91 C 112.47 109.38 108.63 109.69 104.81 109.61 C 104.29 108.75 103.78 107.89 103.29 107.02 C 102.48 105.50 101.70 103.98 100.85 102.49 C 100.82 101.71 100.76 100.14 100.72 99.36 C 102.14 99.44 103.56 99.53 104.99 99.62 C 103.98 99.47 102.98 99.30 101.98 99.13 C 101.78 98.90 101.38 98.46 101.18 98.24 L 102.86 98.42 C 103.17 98.11 103.79 97.47 104.10 97.16 L 104.65 96.86 C 108.19 96.29 111.77 96.17 115.35 96.33 L 115.42 95.38 Z" />
</g>
<g id="#572d09fd">
<path fill="#572d09" opacity="1.00" d=" M 119.71 97.89 C 123.92 94.13 129.02 98.07 133.56 98.67 C 134.74 102.76 133.98 108.85 129.24 110.25 C 129.27 109.51 129.35 108.04 129.38 107.30 C 129.75 107.32 130.49 107.35 130.86 107.36 C 130.57 106.68 130.28 106.00 129.99 105.32 C 131.07 104.97 132.15 104.60 133.23 104.21 C 133.35 102.54 134.36 100.57 133.06 99.10 C 131.75 98.17 130.25 99.23 128.84 99.23 C 124.37 98.68 121.46 103.62 123.29 107.57 C 122.04 108.06 120.74 107.91 119.49 107.51 C 118.75 104.31 119.04 101.07 119.71 97.89 Z" />
</g>
<g id="#e9bdaff7">
<path fill="#e9bdaf" opacity="0.97" d=" M 223.51 98.60 C 223.91 97.66 224.33 96.74 224.80 95.83 C 224.93 97.81 225.15 99.79 225.31 101.77 C 224.20 107.88 225.79 114.17 224.38 120.20 C 223.61 113.03 224.40 105.78 223.51 98.60 Z" />
</g>
<g id="#fdc2bafd">
<path fill="#fdc2ba" opacity="1.00" d=" M 242.79 103.26 C 243.37 101.11 243.81 98.94 244.20 96.76 C 243.23 103.67 245.14 110.48 245.62 117.34 C 244.97 112.84 244.19 108.36 243.48 103.87 L 242.79 103.26 Z" />
<path fill="#fdc2ba" opacity="1.00" d=" M 220.25 130.90 C 221.73 131.37 223.13 132.02 224.45 132.82 C 222.95 140.54 221.44 148.50 216.68 154.98 C 216.23 155.25 215.35 155.79 214.91 156.06 C 214.55 151.32 214.62 146.55 215.53 141.88 C 215.53 144.63 215.74 147.38 216.17 150.10 C 217.64 144.56 217.64 138.73 218.92 133.14 C 219.60 133.07 220.97 132.93 221.65 132.86 C 221.18 132.21 220.71 131.56 220.25 130.90 Z" />
</g>
<g id="#2f1906fd">
<path fill="#2f1906" opacity="1.00" d=" M 117.03 98.27 C 117.09 98.19 117.20 98.04 117.26 97.96 C 117.87 97.95 119.10 97.91 119.71 97.89 C 119.04 101.07 118.75 104.31 119.49 107.51 C 120.74 107.91 122.04 108.06 123.29 107.57 C 124.19 107.75 125.09 107.91 126.00 108.07 C 126.03 108.71 126.10 109.99 126.13 110.63 C 123.12 110.82 118.97 110.85 117.80 107.37 C 115.85 104.56 119.02 100.96 117.03 98.27 Z" />
</g>
<g id="#c13120fe">
<path fill="#c13120" opacity="1.00" d=" M 95.59 99.22 C 96.57 99.71 97.61 100.67 98.61 99.65 C 99.32 100.63 100.06 101.57 100.85 102.49 C 101.70 103.98 102.48 105.50 103.29 107.02 C 103.52 108.12 103.69 109.24 103.87 110.35 C 102.10 111.00 100.02 111.33 98.89 113.00 C 106.43 110.24 114.58 110.95 122.27 112.65 C 122.08 113.17 121.70 114.19 121.50 114.70 C 118.49 115.23 115.40 115.09 112.36 115.29 C 111.93 115.83 111.07 116.91 110.64 117.45 C 110.24 117.50 109.45 117.60 109.05 117.65 C 111.52 118.64 114.21 118.79 116.82 119.20 C 115.06 122.56 121.56 123.83 119.43 127.41 C 118.31 127.45 117.18 127.49 116.06 127.55 C 116.27 129.98 116.09 132.76 118.13 134.52 C 117.95 135.47 118.00 136.43 118.14 137.39 C 115.50 140.24 118.18 143.53 119.67 146.22 C 120.43 146.41 121.18 146.61 121.94 146.81 C 121.07 147.64 120.21 148.47 119.35 149.30 C 123.10 153.65 121.83 159.70 123.68 164.74 C 125.30 166.54 127.33 167.95 128.92 169.80 C 129.44 169.72 130.47 169.58 130.99 169.51 C 130.88 169.97 130.67 170.89 130.57 171.35 C 129.55 172.02 128.54 172.69 127.54 173.36 C 125.05 172.45 122.70 171.10 120.83 169.22 C 119.07 167.94 119.95 165.59 119.68 163.76 C 117.93 164.58 117.07 166.38 116.44 168.10 C 116.27 171.47 120.26 172.64 121.57 175.22 C 122.96 180.97 124.27 187.08 128.21 191.70 C 128.84 191.82 130.10 192.05 130.73 192.16 C 129.64 194.72 131.94 196.23 134.28 196.28 C 133.56 197.99 133.46 199.85 133.45 201.69 C 132.79 202.37 132.14 203.05 131.49 203.73 C 131.81 204.58 132.13 205.44 132.45 206.29 C 131.44 208.40 130.02 210.93 132.02 212.95 C 133.45 214.30 132.35 215.97 131.73 217.40 C 129.96 215.05 126.14 213.17 123.78 215.78 C 119.50 220.42 115.79 225.63 110.80 229.59 C 109.13 228.62 107.51 227.57 105.94 226.46 C 106.65 223.80 107.34 221.14 108.00 218.47 C 108.64 218.83 109.28 219.20 109.93 219.56 C 110.50 217.82 111.05 216.06 111.58 214.30 C 110.81 213.63 110.05 212.96 109.29 212.29 C 109.89 212.16 111.09 211.90 111.69 211.77 C 110.67 210.82 109.73 209.80 108.83 208.74 C 109.36 208.65 110.43 208.46 110.96 208.37 C 110.91 207.87 110.82 206.89 110.77 206.40 C 109.80 206.42 108.84 206.45 107.88 206.49 C 109.01 204.45 110.15 202.12 108.57 199.98 C 109.65 199.41 110.74 198.83 111.82 198.26 C 110.36 198.10 108.89 197.95 107.43 197.81 C 107.39 195.55 107.79 193.32 108.52 191.19 C 107.44 190.16 106.36 189.14 105.27 188.13 C 105.95 186.86 106.64 185.60 107.38 184.37 C 106.07 183.21 104.83 181.99 103.66 180.71 C 102.94 180.98 102.23 181.26 101.52 181.53 C 100.89 179.29 102.06 177.66 104.10 176.78 C 103.02 174.49 101.15 172.74 99.78 170.65 C 99.17 168.10 100.38 164.94 98.15 162.97 C 95.49 160.29 97.72 156.11 95.96 153.03 C 94.56 150.32 94.10 147.30 93.71 144.32 C 93.33 141.96 94.69 139.72 94.55 137.37 C 93.91 135.90 92.51 134.69 92.44 133.01 C 92.25 131.41 93.81 130.51 94.67 129.40 C 94.10 129.20 92.97 128.80 92.41 128.61 C 92.12 125.67 93.17 122.88 94.02 120.13 C 93.06 119.23 92.11 118.33 91.16 117.42 C 92.28 117.12 93.40 116.81 94.52 116.52 C 94.57 110.73 94.41 104.93 95.59 99.22 Z" />
</g>
<g id="#000000fd">
<path fill="#000000" opacity="1.00" d=" M 123.29 107.57 C 121.46 103.62 124.37 98.68 128.84 99.23 C 128.41 101.09 128.37 102.99 128.61 104.89 L 129.99 105.32 C 130.28 106.00 130.57 106.68 130.86 107.36 C 130.49 107.35 129.75 107.32 129.38 107.30 C 128.15 107.17 127.02 107.43 126.00 108.07 C 125.09 107.91 124.19 107.75 123.29 107.57 Z" />
</g>
<g id="#ece0d7fe">
<path fill="#ece0d7" opacity="1.00" d=" M 128.84 99.23 C 130.25 99.23 131.75 98.17 133.06 99.10 C 134.36 100.57 133.35 102.54 133.23 104.21 C 132.15 104.60 131.07 104.97 129.99 105.32 L 128.61 104.89 C 128.37 102.99 128.41 101.09 128.84 99.23 Z" />
</g>
<g id="#6a7276fd">
<path fill="#6a7276" opacity="1.00" d=" M 136.09 98.73 C 138.19 99.49 140.21 100.48 141.92 101.94 C 141.89 101.29 141.82 99.98 141.79 99.32 L 142.43 99.73 C 142.52 101.56 142.20 103.39 141.38 105.04 C 141.42 104.42 141.50 103.17 141.54 102.55 C 139.83 102.69 138.17 102.37 136.59 101.73 C 136.38 102.93 136.15 104.13 135.89 105.32 C 135.99 103.12 136.01 100.93 136.09 98.73 Z" />
<path fill="#6a7276" opacity="1.00" d=" M 179.93 179.18 C 181.46 178.11 183.20 177.46 185.05 177.22 C 184.42 178.12 183.79 179.02 183.16 179.91 C 184.28 181.92 185.63 183.79 187.02 185.62 C 186.78 185.87 186.31 186.37 186.07 186.62 C 183.58 184.56 180.78 182.49 179.93 179.18 Z" />
</g>
<g id="#642707fd">
<path fill="#642707" opacity="1.00" d=" M 162.46 100.48 C 163.67 99.68 165.07 99.25 166.40 98.72 C 166.75 101.83 162.66 104.64 165.65 107.35 C 166.02 107.59 166.77 108.07 167.14 108.31 C 167.64 108.60 168.65 109.19 169.15 109.49 C 167.11 109.58 164.73 110.59 163.07 108.90 C 160.37 107.04 160.81 102.90 162.46 100.48 Z" />
</g>
<g id="#f3e6defd">
<path fill="#f3e6de" opacity="1.00" d=" M 168.20 99.86 C 169.22 98.93 170.55 98.03 171.98 98.82 C 172.90 102.09 171.17 105.36 170.36 108.48 C 170.06 108.73 169.45 109.24 169.15 109.49 C 168.65 109.19 167.64 108.60 167.14 108.31 C 168.01 107.03 169.08 105.98 170.81 106.40 L 171.01 104.49 C 167.91 105.17 168.01 101.95 168.20 99.86 Z" />
</g>
<g id="#f7f1f4fd">
<path fill="#f7f1f4" opacity="1.00" d=" M 174.25 99.89 C 175.52 98.25 177.41 98.19 179.33 98.48 C 180.14 99.48 181.44 99.46 182.59 99.57 C 182.88 102.88 180.82 105.64 179.33 108.40 C 177.13 108.52 174.92 108.65 172.73 108.80 C 174.64 106.19 174.91 102.98 174.25 99.89 Z" />
</g>
<g id="#fbd0c6fb">
<path fill="#fbd0c6" opacity="1.00" d=" M 222.86 99.33 L 223.51 98.60 C 224.40 105.78 223.61 113.03 224.38 120.20 C 225.79 114.17 224.20 107.88 225.31 101.77 C 225.94 106.03 225.17 110.47 226.85 114.55 C 226.83 120.72 225.32 126.74 224.45 132.82 C 223.13 132.02 221.73 131.37 220.25 130.90 C 220.71 131.56 221.18 132.21 221.65 132.86 C 220.97 132.93 219.60 133.07 218.92 133.14 C 219.82 127.73 221.53 122.48 222.02 117.00 C 222.80 111.14 222.78 105.23 222.86 99.33 Z" />
</g>
<g id="#faf1f2fe">
<path fill="#faf1f2" opacity="1.00" d=" M 136.59 101.73 C 138.17 102.37 139.83 102.69 141.54 102.55 C 141.50 103.17 141.42 104.42 141.38 105.04 C 140.42 107.10 139.19 109.02 138.00 110.95 C 136.56 113.43 133.17 112.47 130.83 112.72 C 132.75 110.44 135.33 108.44 135.89 105.32 C 136.15 104.13 136.38 102.93 136.59 101.73 Z" />
</g>
<g id="#e73720f7">
<path fill="#e73720" opacity="0.97" d=" M 242.79 103.26 L 243.48 103.87 C 244.19 108.36 244.97 112.84 245.62 117.34 C 245.68 117.99 245.79 119.28 245.84 119.92 L 246.69 120.93 C 241.96 123.89 238.07 127.83 235.03 132.50 C 235.41 131.49 235.80 130.49 236.22 129.50 C 237.64 127.81 239.11 126.16 240.59 124.52 C 242.21 123.23 243.97 122.13 245.70 120.99 C 245.14 120.11 244.58 119.23 244.01 118.36 C 243.50 114.53 243.31 110.42 240.81 107.25 C 241.44 105.90 242.12 104.58 242.79 103.26 Z" />
<path fill="#e73720" opacity="0.97" d=" M 222.71 150.08 C 225.93 143.65 228.39 136.81 229.53 129.68 C 229.43 131.39 229.36 133.10 229.32 134.81 C 230.93 134.64 232.56 134.49 234.17 134.34 C 233.71 135.37 233.25 136.40 232.81 137.44 C 228.86 139.84 228.32 144.75 227.75 148.91 C 227.30 152.50 228.06 156.10 229.77 159.27 L 230.19 160.23 C 231.51 162.73 235.03 164.51 237.50 162.47 C 241.81 159.39 242.70 153.64 243.28 148.74 C 244.22 146.68 244.95 144.53 245.36 142.29 C 246.01 141.40 246.68 140.52 247.36 139.65 C 247.96 145.78 247.77 151.91 247.15 158.02 C 245.51 161.83 244.10 165.98 240.85 168.76 C 237.75 171.45 234.51 174.87 230.05 174.73 C 228.30 174.66 225.48 175.45 224.91 173.12 C 222.75 165.67 222.77 157.76 222.71 150.08 Z" />
</g>
<g id="#9c2412b3">
<path fill="#9c2412" opacity="0.70" d=" M 238.02 113.38 C 239.02 111.37 239.87 109.29 240.81 107.25 C 243.31 110.42 243.50 114.53 244.01 118.36 C 240.59 117.33 241.25 113.51 241.03 110.73 C 240.02 111.61 239.00 112.47 238.02 113.38 Z" />
</g>
<g id="#751b0d82">
<path fill="#751b0d" opacity="0.51" d=" M 238.02 113.38 C 239.00 112.47 240.02 111.61 241.03 110.73 C 241.25 113.51 240.59 117.33 244.01 118.36 C 244.58 119.23 245.14 120.11 245.70 120.99 C 243.97 122.13 242.21 123.23 240.59 124.52 C 240.83 121.32 240.94 118.02 239.44 115.06 C 236.25 116.49 235.24 120.65 231.61 121.38 C 233.81 118.76 235.99 116.13 238.02 113.38 Z" />
</g>
<g id="#d8381cfd">
<path fill="#d8381c" opacity="1.00" d=" M 122.27 112.65 C 127.67 113.77 133.19 114.77 138.63 113.25 C 138.74 113.88 138.96 115.14 139.07 115.77 C 138.67 115.96 137.87 116.36 137.47 116.55 C 133.83 116.23 130.34 117.55 126.73 117.73 C 121.37 118.05 116.00 117.56 110.64 117.45 C 111.07 116.91 111.93 115.83 112.36 115.29 C 115.40 115.09 118.49 115.23 121.50 114.70 C 121.70 114.19 122.08 113.17 122.27 112.65 Z" />
</g>
<g id="#7e0e0cfe">
<path fill="#7e0e0c" opacity="1.00" d=" M 156.01 115.79 C 158.99 115.12 162.03 115.88 165.04 115.71 C 168.43 115.52 171.82 115.21 175.20 115.57 L 173.93 115.81 C 168.17 117.03 161.38 119.26 156.01 115.79 Z" />
</g>
<g id="#4c120a52">
<path fill="#4c120a" opacity="0.32" d=" M 231.61 121.38 C 235.24 120.65 236.25 116.49 239.44 115.06 C 240.94 118.02 240.83 121.32 240.59 124.52 C 239.11 126.16 237.64 127.81 236.22 129.50 C 234.68 129.28 232.42 130.31 231.36 128.79 C 230.68 126.55 231.14 124.14 231.25 121.84 C 231.34 121.73 231.52 121.50 231.61 121.38 Z" />
</g>
<g id="#000000cd">
<path fill="#000000" opacity="0.80" d=" M 255.26 116.52 L 256.00 115.76 L 256.00 124.61 C 254.98 125.30 252.72 125.21 252.89 126.93 C 252.53 129.81 252.70 132.73 253.11 135.60 C 253.84 135.72 255.28 135.97 256.00 136.09 L 256.00 141.72 C 254.47 142.80 252.90 143.82 251.36 144.89 C 252.68 137.39 251.81 129.77 251.28 122.24 C 254.46 122.24 253.98 118.53 255.26 116.52 Z" />
</g>
<g id="#d83623fd">
<path fill="#d83623" opacity="1.00" d=" M 116.82 119.20 C 123.17 120.04 129.70 119.43 135.78 117.39 C 136.02 118.04 136.51 119.32 136.76 119.97 C 135.99 120.23 135.22 120.49 134.45 120.76 C 134.95 123.00 134.08 125.12 133.16 127.12 C 134.39 129.06 135.76 131.08 138.00 131.94 C 136.32 132.82 134.39 134.14 135.49 136.27 C 136.85 136.62 138.21 136.98 139.58 137.35 C 139.87 138.08 140.47 139.53 140.77 140.26 C 138.24 143.08 136.79 146.61 135.45 150.10 C 137.17 152.80 140.85 154.16 143.80 152.67 C 143.34 156.69 139.92 160.84 142.19 164.81 C 142.54 164.43 143.23 163.67 143.57 163.29 C 144.30 164.13 145.06 164.94 145.71 165.85 C 145.24 167.74 142.82 167.61 141.35 168.33 C 142.48 169.92 143.70 171.45 144.98 172.92 C 143.68 174.19 142.29 175.38 140.83 176.45 C 136.34 175.69 131.84 174.88 127.54 173.36 C 128.54 172.69 129.55 172.02 130.57 171.35 C 130.67 170.89 130.88 169.97 130.99 169.51 C 130.47 169.58 129.44 169.72 128.92 169.80 C 127.33 167.95 125.30 166.54 123.68 164.74 C 121.83 159.70 123.10 153.65 119.35 149.30 C 120.21 148.47 121.07 147.64 121.94 146.81 C 121.18 146.61 120.43 146.41 119.67 146.22 C 118.18 143.53 115.50 140.24 118.14 137.39 C 118.00 136.43 117.95 135.47 118.13 134.52 C 116.09 132.76 116.27 129.98 116.06 127.55 C 117.18 127.49 118.31 127.45 119.43 127.41 C 121.56 123.83 115.06 122.56 116.82 119.20 Z" />
</g>
<g id="#a89e9ea8">
<path fill="#a89e9e" opacity="0.66" d=" M 245.84 119.92 C 247.54 120.21 248.46 119.38 248.68 117.78 C 248.73 119.22 248.81 120.67 248.91 122.11 C 247.89 123.10 247.30 124.53 247.58 125.97 C 247.95 130.00 248.51 134.02 249.49 137.96 C 249.46 131.92 251.63 126.10 251.09 120.00 C 251.14 120.56 251.23 121.68 251.28 122.24 C 251.81 129.77 252.68 137.39 251.36 144.89 C 251.27 145.52 251.10 146.79 251.01 147.42 C 250.33 146.39 249.67 145.36 249.01 144.32 C 248.52 142.45 248.04 140.57 247.70 138.67 C 247.66 138.18 247.57 137.19 247.53 136.70 C 247.35 132.99 247.16 129.26 246.48 125.61 C 246.42 125.14 246.28 124.20 246.22 123.73 C 246.63 123.17 247.45 122.05 247.87 121.49 C 247.57 121.35 246.98 121.07 246.69 120.93 L 245.84 119.92 Z" />
</g>
<g id="#000000fe">
<path fill="#000000" opacity="1.00" d=" M 246.69 120.93 C 246.98 121.07 247.57 121.35 247.87 121.49 C 247.45 122.05 246.63 123.17 246.22 123.73 C 244.36 126.57 242.09 129.13 240.34 132.04 C 242.73 135.07 244.45 138.55 245.36 142.29 C 244.95 144.53 244.22 146.68 243.28 148.74 C 241.33 144.69 240.94 140.11 239.08 136.01 C 234.69 143.57 234.15 152.62 231.77 160.91 C 231.37 160.74 230.59 160.40 230.19 160.23 L 229.77 159.27 C 229.03 151.82 230.90 144.55 232.81 137.44 C 233.25 136.40 233.71 135.37 234.17 134.34 C 234.45 133.72 234.74 133.11 235.03 132.50 C 238.07 127.83 241.96 123.89 246.69 120.93 Z" />
<path fill="#000000" opacity="1.00" d=" M 154.37 139.51 C 156.36 138.75 157.52 141.29 158.31 142.70 C 159.42 144.95 161.25 148.64 158.29 150.23 C 156.59 152.50 152.57 152.10 152.33 148.93 C 152.55 145.87 152.22 141.84 154.37 139.51 Z" />
<path fill="#000000" opacity="1.00" d=" M 140.77 140.26 C 141.36 140.05 142.54 139.63 143.14 139.42 C 143.62 140.20 144.08 140.99 144.54 141.78 C 145.37 144.79 145.64 147.92 145.47 151.03 C 145.05 151.44 144.21 152.26 143.80 152.67 C 140.85 154.16 137.17 152.80 135.45 150.10 C 136.79 146.61 138.24 143.08 140.77 140.26 Z" />
<path fill="#000000" opacity="1.00" d=" M 116.44 168.10 C 117.07 166.38 117.93 164.58 119.68 163.76 C 119.95 165.59 119.07 167.94 120.83 169.22 C 122.70 171.10 125.05 172.45 127.54 173.36 C 131.84 174.88 136.34 175.69 140.83 176.45 C 144.84 177.03 148.89 177.50 152.95 177.47 C 164.35 177.48 176.13 177.46 186.87 173.12 C 190.12 171.88 193.24 168.99 192.32 165.17 C 192.98 165.80 193.64 166.43 194.28 167.07 C 194.27 167.80 194.26 169.24 194.25 169.96 C 192.14 172.59 190.78 175.60 190.88 179.07 C 190.22 177.56 189.95 175.93 189.74 174.31 C 189.52 174.51 189.06 174.93 188.83 175.13 C 187.70 176.07 186.44 176.77 185.05 177.22 C 183.20 177.46 181.46 178.11 179.93 179.18 C 180.78 182.49 183.58 184.56 186.07 186.62 C 186.31 186.37 186.78 185.87 187.02 185.62 C 188.05 183.34 188.50 180.87 189.30 178.53 C 191.64 180.21 189.94 183.15 189.24 185.28 C 188.50 186.79 187.18 189.23 185.13 188.21 C 181.49 186.18 179.50 182.37 176.61 179.55 C 175.15 178.81 173.40 179.63 171.84 179.61 C 164.45 180.62 156.99 180.44 149.55 180.57 C 147.22 180.54 144.66 179.73 142.44 180.54 C 138.52 184.38 135.69 189.46 130.73 192.16 C 130.10 192.05 128.84 191.82 128.21 191.70 C 124.27 187.08 122.96 180.97 121.57 175.22 C 120.26 172.64 116.27 171.47 116.44 168.10 M 124.40 176.39 C 124.84 179.87 126.62 182.95 127.93 186.15 C 128.63 187.21 128.67 189.27 130.45 189.13 L 130.99 189.79 C 134.44 186.90 138.09 183.62 139.85 179.42 C 136.67 179.88 133.58 179.14 130.51 178.44 L 130.92 177.97 C 128.74 177.43 126.60 176.78 124.40 176.39 Z" />
</g>
<g id="#000000fc">
<path fill="#000000" opacity="1.00" d=" M 8.11 122.15 C 9.40 121.39 10.72 122.52 11.51 123.46 C 17.93 130.78 23.47 139.25 25.39 148.93 C 26.54 155.11 27.65 161.47 26.56 167.74 C 26.24 168.73 25.58 169.00 24.61 168.55 C 23.14 160.70 22.25 152.70 20.08 145.01 C 19.81 144.61 19.29 143.82 19.02 143.42 C 17.07 146.22 17.94 150.20 15.91 152.92 C 14.17 153.80 14.45 150.98 14.27 150.05 C 14.06 146.11 15.24 142.19 17.51 138.97 C 15.30 132.84 9.68 128.52 8.11 122.15 Z" />
</g>
<g id="#7c1d0e85">
<path fill="#7c1d0e" opacity="0.52" d=" M 229.53 129.68 C 230.04 127.08 229.68 124.12 231.25 121.84 C 231.14 124.14 230.68 126.55 231.36 128.79 C 232.42 130.31 234.68 129.28 236.22 129.50 C 235.80 130.49 235.41 131.49 235.03 132.50 C 234.74 133.11 234.45 133.72 234.17 134.34 C 232.56 134.49 230.93 134.64 229.32 134.81 C 229.36 133.10 229.43 131.39 229.53 129.68 Z" />
</g>
<g id="#801200fb">
<path fill="#801200" opacity="1.00" d=" M 240.34 132.04 C 242.09 129.13 244.36 126.57 246.22 123.73 C 246.28 124.20 246.42 125.14 246.48 125.61 C 245.99 129.25 245.04 133.56 247.53 136.70 C 247.57 137.19 247.66 138.18 247.70 138.67 L 247.36 139.65 C 246.68 140.52 246.01 141.40 245.36 142.29 C 244.45 138.55 242.73 135.07 240.34 132.04 Z" />
</g>
<g id="#000000aa">
<path fill="#000000" opacity="0.67" d=" M 252.89 126.93 C 252.72 125.21 254.98 125.30 256.00 124.61 L 256.00 136.09 C 255.28 135.97 253.84 135.72 253.11 135.60 C 252.70 132.73 252.53 129.81 252.89 126.93 Z" />
</g>
<g id="#4d121efa">
<path fill="#4d121e" opacity="0.98" d=" M 246.48 125.61 C 247.16 129.26 247.35 132.99 247.53 136.70 C 245.04 133.56 245.99 129.25 246.48 125.61 Z" />
</g>
<g id="#79180cf6">
<path fill="#79180c" opacity="0.96" d=" M 231.77 160.91 C 234.15 152.62 234.69 143.57 239.08 136.01 C 240.94 140.11 241.33 144.69 243.28 148.74 C 242.70 153.64 241.81 159.39 237.50 162.47 C 235.03 164.51 231.51 162.73 230.19 160.23 C 230.59 160.40 231.37 160.74 231.77 160.91 Z" />
</g>
<g id="#961c0dfd">
<path fill="#961c0d" opacity="1.00" d=" M 227.75 148.91 C 228.32 144.75 228.86 139.84 232.81 137.44 C 230.90 144.55 229.03 151.82 229.77 159.27 C 228.06 156.10 227.30 152.50 227.75 148.91 Z" />
</g>
<g id="#b26259d3">
<path fill="#b26259" opacity="0.83" d=" M 247.70 138.67 C 248.04 140.57 248.52 142.45 249.01 144.32 C 249.11 146.85 247.68 149.88 249.84 151.89 C 249.15 154.02 248.10 156.00 247.15 158.02 C 247.77 151.91 247.96 145.78 247.36 139.65 L 247.70 138.67 Z" />
</g>
<g id="#db3014fe">
<path fill="#db3014" opacity="1.00" d=" M 144.54 141.78 C 145.91 141.53 147.29 141.31 148.67 141.08 C 149.45 144.99 152.02 150.70 147.20 152.98 C 146.96 149.60 147.01 146.20 146.60 142.83 C 146.01 145.17 146.28 147.60 146.19 149.98 C 146.01 150.24 145.65 150.77 145.47 151.03 C 145.64 147.92 145.37 144.79 144.54 141.78 Z" />
</g>
<g id="#685f5d88">
<path fill="#685f5d" opacity="0.53" d=" M 249.01 144.32 C 249.67 145.36 250.33 146.39 251.01 147.42 C 250.75 148.94 250.32 150.42 249.84 151.89 C 247.68 149.88 249.11 146.85 249.01 144.32 Z" />
</g>
<g id="#f33e28fd">
<path fill="#f33e28" opacity="1.00" d=" M 213.53 154.60 C 213.99 155.08 214.45 155.57 214.91 156.06 C 215.35 155.79 216.23 155.25 216.68 154.98 C 213.13 161.57 208.77 167.69 205.36 174.35 C 202.59 179.72 206.33 185.42 206.63 190.94 C 207.77 197.26 204.50 203.09 201.12 208.13 C 197.88 213.32 192.02 215.79 187.24 219.25 C 178.91 225.08 169.46 228.96 160.00 232.51 C 158.11 232.16 158.42 230.43 158.30 229.00 C 157.46 227.94 155.93 228.80 154.80 228.64 C 153.04 229.06 151.66 227.73 150.24 226.93 C 150.54 226.06 150.83 225.20 151.13 224.33 C 151.92 224.75 152.72 225.18 153.51 225.61 C 154.27 221.73 155.60 217.65 154.35 213.74 C 155.54 210.97 157.17 208.16 159.88 206.61 C 159.22 206.17 158.56 205.74 157.91 205.31 C 157.15 205.91 156.38 206.51 155.62 207.12 C 154.44 204.70 158.08 203.64 159.34 202.13 C 159.14 201.14 159.03 200.15 159.06 199.15 C 158.12 197.89 157.14 196.66 156.15 195.45 C 157.15 195.19 158.15 194.93 159.16 194.68 C 159.59 193.47 160.04 192.27 160.48 191.07 C 159.32 188.41 159.47 185.37 158.28 182.73 C 155.57 181.43 152.05 182.66 149.55 180.57 C 156.99 180.44 164.45 180.62 171.84 179.61 C 173.40 179.63 175.15 178.81 176.61 179.55 C 179.50 182.37 181.49 186.18 185.13 188.21 C 187.18 189.23 188.50 186.79 189.24 185.28 C 189.94 183.15 191.64 180.21 189.30 178.53 C 189.15 177.39 188.99 176.26 188.83 175.13 C 189.06 174.93 189.52 174.51 189.74 174.31 C 189.95 175.93 190.22 177.56 190.88 179.07 C 190.78 175.60 192.14 172.59 194.25 169.96 C 194.26 169.24 194.27 167.80 194.28 167.07 C 195.31 165.41 196.39 163.79 197.48 162.18 C 198.13 163.53 198.70 164.92 199.53 166.18 C 200.72 167.63 202.78 167.45 204.47 167.47 C 205.23 165.54 206.70 164.17 208.58 163.34 C 208.66 159.65 211.42 157.27 213.53 154.60 Z" />
</g>
<g id="#2a2121fd">
<path fill="#2a2121" opacity="1.00" d=" M 216.13 162.24 C 216.99 160.57 217.99 158.96 219.62 157.94 C 219.76 162.23 219.70 166.55 220.46 170.80 C 220.98 175.19 220.83 179.62 220.68 184.03 C 220.40 191.04 221.84 198.02 221.13 205.02 C 220.66 211.02 218.12 216.61 217.66 222.62 L 217.64 222.76 C 216.50 223.58 215.44 224.59 214.10 225.10 C 201.49 225.04 189.19 228.26 176.91 230.74 C 173.41 231.19 169.77 234.15 166.34 232.30 C 178.57 228.24 189.12 220.71 200.02 214.07 C 204.37 210.09 207.18 204.59 209.11 199.08 C 211.48 191.74 207.61 184.47 207.40 177.20 C 209.89 172.00 212.94 167.05 216.13 162.24 Z" />
</g>
<g id="#0c0909fb">
<path fill="#0c0909" opacity="1.00" d=" M 35.63 165.17 C 35.85 165.19 36.30 165.23 36.52 165.24 C 39.63 171.61 44.23 177.14 47.68 183.32 C 49.55 189.74 43.75 194.86 43.18 200.97 C 43.47 203.07 43.80 205.27 44.79 207.17 C 50.04 213.60 57.59 217.35 64.67 221.35 C 69.88 223.98 75.44 225.79 80.73 228.24 C 84.39 229.51 87.77 231.65 91.66 232.21 L 91.61 232.68 C 91.57 233.01 91.49 233.67 91.46 234.00 C 95.60 237.62 102.93 235.68 105.49 241.39 C 105.92 241.12 106.78 240.59 107.21 240.33 C 107.76 241.82 106.93 243.27 106.53 244.70 C 109.27 245.69 112.07 246.51 114.95 246.94 C 114.40 245.91 113.79 244.88 113.55 243.72 C 115.97 242.54 116.75 245.92 116.76 247.70 C 117.88 248.46 118.99 249.22 120.14 249.93 C 117.54 250.62 115.25 249.10 112.91 248.28 C 105.57 246.29 98.25 244.24 90.96 242.06 C 86.61 241.03 82.69 238.72 78.30 237.82 C 75.46 237.18 72.95 235.54 70.07 235.03 C 66.17 233.96 61.84 233.97 58.41 231.60 C 56.59 230.43 54.18 230.93 52.42 229.64 C 49.34 227.50 45.77 225.84 43.58 222.67 C 42.87 222.67 42.17 222.67 41.47 222.68 C 37.71 219.36 34.66 215.39 31.38 211.63 C 28.42 204.54 28.18 196.20 30.94 189.01 C 32.54 181.07 35.23 173.31 35.63 165.17 Z" />
</g>
<g id="#6b6666a4">
<path fill="#6b6666" opacity="0.64" d=" M 220.68 184.03 C 220.83 179.62 220.98 175.19 220.46 170.80 C 220.61 175.50 223.21 179.41 224.24 183.90 C 227.45 194.18 227.97 205.66 223.75 215.73 C 222.47 218.59 220.14 220.78 217.66 222.62 C 218.12 216.61 220.66 211.02 221.13 205.02 C 221.84 198.02 220.40 191.04 220.68 184.03 M 222.19 182.89 C 221.83 186.60 223.05 190.26 222.51 193.98 C 222.66 202.29 222.97 210.91 219.48 218.67 C 219.69 218.60 220.13 218.45 220.34 218.38 C 222.55 213.45 225.14 208.42 225.12 202.89 C 225.19 198.17 225.35 193.30 223.62 188.83 C 222.81 186.93 223.39 184.58 222.19 182.89 Z" />
</g>
<g id="#483632fe">
<path fill="#483632" opacity="1.00" d=" M 124.40 176.39 C 126.60 176.78 128.74 177.43 130.92 177.97 L 130.51 178.44 C 130.23 178.77 129.68 179.43 129.40 179.75 C 128.97 182.98 130.76 185.91 130.45 189.13 C 128.67 189.27 128.63 187.21 127.93 186.15 C 126.62 182.95 124.84 179.87 124.40 176.39 Z" />
</g>
<g id="#f6ebe5fe">
<path fill="#f6ebe5" opacity="1.00" d=" M 185.05 177.22 C 186.44 176.77 187.70 176.07 188.83 175.13 C 188.99 176.26 189.15 177.39 189.30 178.53 C 188.50 180.87 188.05 183.34 187.02 185.62 C 185.63 183.79 184.28 181.92 183.16 179.91 C 183.79 179.02 184.42 178.12 185.05 177.22 Z" />
</g>
<g id="#ded9d2fe">
<path fill="#ded9d2" opacity="1.00" d=" M 129.40 179.75 C 129.68 179.43 130.23 178.77 130.51 178.44 C 133.58 179.14 136.67 179.88 139.85 179.42 C 138.09 183.62 134.44 186.90 130.99 189.79 L 130.45 189.13 C 130.76 185.91 128.97 182.98 129.40 179.75 Z" />
</g>
<g id="#e33a25fe">
<path fill="#e33a25" opacity="1.00" d=" M 142.44 180.54 C 144.66 179.73 147.22 180.54 149.55 180.57 C 152.05 182.66 155.57 181.43 158.28 182.73 C 159.47 185.37 159.32 188.41 160.48 191.07 C 160.04 192.27 159.59 193.47 159.16 194.68 C 158.15 194.93 157.15 195.19 156.15 195.45 C 157.14 196.66 158.12 197.89 159.06 199.15 C 159.03 200.15 159.14 201.14 159.34 202.13 C 158.08 203.64 154.44 204.70 155.62 207.12 C 156.38 206.51 157.15 205.91 157.91 205.31 C 158.56 205.74 159.22 206.17 159.88 206.61 C 157.17 208.16 155.54 210.97 154.35 213.74 C 155.60 217.65 154.27 221.73 153.51 225.61 C 152.72 225.18 151.92 224.75 151.13 224.33 C 150.83 225.20 150.54 226.06 150.24 226.93 C 151.66 227.73 153.04 229.06 154.80 228.64 C 155.93 228.80 157.46 227.94 158.30 229.00 C 158.42 230.43 158.11 232.16 160.00 232.51 C 155.52 234.28 150.50 235.68 145.72 234.32 C 142.74 233.13 140.91 230.26 139.25 227.66 C 137.07 224.01 134.39 220.70 131.73 217.40 C 132.35 215.97 133.45 214.30 132.02 212.95 C 130.02 210.93 131.44 208.40 132.45 206.29 C 132.13 205.44 131.81 204.58 131.49 203.73 C 132.14 203.05 132.79 202.37 133.45 201.69 C 133.46 199.85 133.56 197.99 134.28 196.28 C 131.94 196.23 129.64 194.72 130.73 192.16 C 135.69 189.46 138.52 184.38 142.44 180.54 Z" />
</g>
<g id="#4542426b">
<path fill="#454242" opacity="0.42" d=" M 222.19 182.89 C 223.39 184.58 222.81 186.93 223.62 188.83 C 225.35 193.30 225.19 198.17 225.12 202.89 C 225.14 208.42 222.55 213.45 220.34 218.38 C 220.13 218.45 219.69 218.60 219.48 218.67 C 222.97 210.91 222.66 202.29 222.51 193.98 C 223.05 190.26 221.83 186.60 222.19 182.89 Z" />
</g>
<g id="#251c1cfd">
<path fill="#251c1c" opacity="1.00" d=" M 125.90 217.69 C 127.80 216.52 129.13 218.51 130.32 219.70 C 134.70 224.32 137.47 230.29 142.30 234.50 C 139.82 236.24 136.72 234.83 133.97 234.81 C 127.08 233.85 119.85 234.12 113.35 231.31 C 115.42 228.45 118.22 226.24 120.38 223.46 C 122.16 221.49 123.64 219.14 125.90 217.69 Z" />
</g>
</svg>
